inDegrees=no
num_controls=7
num_derivatives=13
num_iterations=173
num_multipliers=7
num_parameters=0
num_slacks=7
num_states=26
objective=5.040793
objective_accelerations=0.402145
objective_balance=0.044706
objective_effort=0.411680
objective_height=4.099620
objective_ligament=0.082642
solver_duration=1918.661489
status=Solve_Succeeded
success=true
DataType=double
version=3
OpenSimVersion=4.4-2022-07-23-0e9fedc
endheader
time	/jointset/ground_pelvis/pelvis_tilt/value	/jointset/ground_pelvis/pelvis_tx/value	/jointset/ground_pelvis/pelvis_ty/value	/jointset/hip_l/hip_flexion_l/value	/jointset/hip_l/hip_adduction_l/value	/jointset/hip_l/hip_rotation_l/value	/jointset/back/lumbar_extension/value	/jointset/patellofemoral_l/patellar_flexion_l/value	/jointset/knee_l/knee_flexion_l/value	/jointset/knee_l/knee_adduction_l/value	/jointset/knee_l/knee_rotation_l/value	/jointset/ankle_l/ankle_angle_l/value	/jointset/subtalar_l/subtalar_angle_l/value	/jointset/ground_pelvis/pelvis_tilt/speed	/jointset/ground_pelvis/pelvis_tx/speed	/jointset/ground_pelvis/pelvis_ty/speed	/jointset/hip_l/hip_flexion_l/speed	/jointset/hip_l/hip_adduction_l/speed	/jointset/hip_l/hip_rotation_l/speed	/jointset/back/lumbar_extension/speed	/jointset/patellofemoral_l/patellar_flexion_l/speed	/jointset/knee_l/knee_flexion_l/speed	/jointset/knee_l/knee_adduction_l/speed	/jointset/knee_l/knee_rotation_l/speed	/jointset/ankle_l/ankle_angle_l/speed	/jointset/subtalar_l/subtalar_angle_l/speed	/forceset/tau_hip_flexion_l	/forceset/tau_hip_adduction_l	/forceset/tau_hip_rotation_l	/forceset/tau_knee_flexion_l	/forceset/tau_ankle_angle_l	/forceset/tau_subtalar_angle_l	/forceset/tau_lumbar_extension	lambda_cid13_p0	lambda_cid13_p1	lambda_cid13_p2	lambda_cid13_p3	lambda_cid13_p4	lambda_cid13_p5	lambda_cid14_p0	/jointset/ground_pelvis/pelvis_tilt/accel	/jointset/ground_pelvis/pelvis_tx/accel	/jointset/ground_pelvis/pelvis_ty/accel	/jointset/hip_l/hip_flexion_l/accel	/jointset/hip_l/hip_adduction_l/accel	/jointset/hip_l/hip_rotation_l/accel	/jointset/back/lumbar_extension/accel	/jointset/patellofemoral_l/patellar_flexion_l/accel	/jointset/knee_l/knee_flexion_l/accel	/jointset/knee_l/knee_adduction_l/accel	/jointset/knee_l/knee_rotation_l/accel	/jointset/ankle_l/ankle_angle_l/accel	/jointset/subtalar_l/subtalar_angle_l/accel	gamma_cid13_p0	gamma_cid13_p1	gamma_cid13_p2	gamma_cid13_p3	gamma_cid13_p4	gamma_cid13_p5	gamma_cid14_p0
1	-0.6603044719869063	-0.1543790025387695	0.6667873374234822	1.738429477233268	-0.3151436145337092	0.009813948072150131	-0.4363288686365096	0.8683135696610088	0.8683135696610381	-0.1745296076498426	0.1745310831481548	-0.041079143392067	-0.07180858788387066	-0.01180980620876238	0.000280626605690599	-0.003000837817726788	0.01762840921426102	0.000197035457364147	0.002964523389056192	0.0001080698378523899	0.007917622853264264	0.007917622853262017	2.856552188653797e-05	-2.023502645109573e-07	0.002705924837398525	0.0006242932035200787	-0.4259641515873696	0.01395526451579002	-0.01988187441841782	-0.1980657296523766	0.2017263742279228	0.05169703415257935	0.3437262347337037	19.52976530286846	-26.3849980852312	4.390561355228919	-0.698869314329571	-706.1966308683101	-55.36221708050891	-17.44679796170075	2.121372814189164	0.4650103704936653	1.250463419249314	-5.476191627788763	-0.04185665935581179	-1.18562393373981	-0.03078213695154509	-3.365786405795243	-3.365786405796555	-0.02192054254701124	0.008425057485542687	-0.1997558294187037	-0.04135498839001115	4.811262164293445e-10	1.910617219483643e-09	-1.711018954194878e-09	-3.093363024625214e-10	1.334218620776299e-09	-8.981736483299694e-11	4.751751605994883e-10
1.01	-0.6603173591129101	-0.1543530334844934	0.6668197093222415	1.738333105748467	-0.3151432004716235	0.009784208603883949	-0.4363283969303088	0.8682246214938674	0.8682246214938926	-0.1745293930736232	0.1745311217420241	-0.04106201432432442	-0.07180388177872958	0.009221641358387706	0.004911642111422292	0.009471079493545299	-0.03688497882526191	-0.0001138838976043221	-0.008910365547790289	-4.631320643196961e-06	-0.02570448847265006	-0.02570448847265389	1.315137885043996e-05	7.348827355163809e-06	0.0007156420587327812	0.0003164019003715274	-0.4258235685423781	0.01398139484472413	-0.01987655247454278	-0.1979971654036004	0.201607678809071	0.05170652251792259	0.3436264126028153	19.50256102298672	-26.38491680283308	4.391189330772037	-0.6825737198720253	-706.0264965452409	-55.36762258633808	-17.4523838445395	2.092419579093462	0.4619157764744776	1.244934831639197	-5.436253527829702	-0.02565886857806761	-1.188115130922874	-0.0001495156539063182	-3.360008000516305	-3.360008000515648	0.008467790710967985	-0.003167220056624238	-0.1993014242612591	-0.0255852445603036	-8.825693905052671e-10	-3.336442966245886e-09	5.794056012371227e-09	-2.179940124660407e-10	-1.68955627889167e-09	4.849490256216584e-09	-1.600083400729151e-09
1.02	-0.6601202539930264	-0.1542808005479875	0.666976676183028	1.737692132156107	-0.3151458854620903	0.009635781494796941	-0.4363287793176629	0.8677995353125642	0.8677995353125827	-0.1745293687106465	0.1745312183740903	-0.04106491546880303	-0.07180227039527666	0.03018864297015775	0.009533403051656741	0.02191815458767326	-0.09129201229660595	-0.0004227750529998622	-0.02077300477527162	-6.274889335521054e-05	-0.05930997997963972	-0.05930997997963841	-9.477128469630097e-06	1.14052867036365e-05	-0.001300117606765534	5.348865901375432e-06	-0.4256829854973886	0.0140075251736595	-0.01987123053072221	-0.1979286011548246	0.2014889833902169	0.0517160108832667	0.3435265904719264	19.4691348598158	-26.38493305904158	4.393188799678083	-0.6617558698470287	-705.9500534307751	-55.36687548591202	-17.47903193142673	2.108483623113158	0.4631594573942137	1.245494975820491	-5.454920714152987	-0.04145101944121822	-1.183173991866734	-0.01986541979497135	-3.362462442010322	-3.362462442010287	-0.02336341540382474	0.007726113831258962	-0.2048512067852219	-0.04198733465432458	-2.177500983446575e-09	-8.629332593748196e-09	1.27982607120618e-08	-3.919606426930489e-11	-5.267395515479472e-09	9.492599549400603e-09	-3.553555306644094e-09
1.03	-0.659713454256007	-0.1541623266113362	0.6672580383009752	1.736507188705425	-0.3151516045290012	0.009368787167349825	-0.4363295969445368	0.8670384670667262	0.8670384670667196	-0.1745295660058659	0.1745313297388947	-0.04108801244800583	-0.07180372465696572	0.05119542153832878	0.01416681852581715	0.03435508290072647	-0.145722442818349	-0.0007161298384354	-0.0326246489729145	-0.0001045814961160466	-0.09290208397670228	-0.09290208397668984	-2.654455645850418e-05	9.790613512085277e-06	-0.003314603602618951	-0.0002905595221594934	-0.4256467917226849	0.0141279867248245	-0.01985858309167844	-0.197738645164444	0.2012998713908686	0.05178568314207657	0.3435798678304229	19.41225371815278	-26.40771899031304	4.399661878919302	-0.6807324698242481	-705.9430972025646	-55.40603407984591	-17.52674815534041	2.100391828639453	0.4642477587007527	1.242912052002401	-5.440969873475188	-0.02254197180789872	-1.185983158679619	0.003087065449260613	-3.357345483901445	-3.357345483899876	0.009634864760827169	-0.004272086676400038	-0.1990459238374765	-0.0225464566511217	-3.471730902775706e-09	-1.392268986861553e-08	1.97973544906618e-08	1.404942886029442e-10	-8.850888469790951e-09	1.413268641066763e-08	-5.505784491585426e-09
1.04	-0.659095863362317	-0.1539973554866884	0.6676637937606436	1.73477716781906	-0.3151601099965098	0.008983311692935007	-0.4363309470480344	0.8659415255598497	0.8659415255598201	-0.1745298313211055	0.174531391591231	-0.04113111401273782	-0.07180796877568928	0.07234687430530978	0.01883284065095995	0.04679682293190836	-0.2003074994316991	-0.0009800551723978962	-0.04446923416922222	-0.0001692442602389813	-0.1264846321876565	-0.1264846321876381	-2.3081134156064e-05	1.50278904093869e-06	-0.005301034712557231	-0.0005526225409870041	-0.4256105979479973	0.01424844827599123	-0.01984593565268892	-0.1975486891740577	0.2011107593915226	0.05185535540088867	0.3436331451889009	19.34909352214389	-26.430588373563	4.407499548204619	-0.6950829406089694	-706.0307770916462	-55.43922477766648	-17.59548943464712	2.137418462875154	0.4696807875906934	1.246457319446231	-5.485845932474389	-0.03556512914660546	-1.181762191599715	-0.02443145206691808	-3.360551284788658	-3.360551284789666	-0.01925724534554513	0.006391483575346996	-0.1992402296021908	-0.0352182608076481	-4.825016405297303e-09	-1.925359826532904e-08	2.758849262595433e-08	-5.718735527616411e-12	-1.126718743889102e-08	1.913044570263177e-08	-7.677430404819139e-09
1.05	-0.6582664149883511	-0.1537855277637409	0.6681938945049045	1.732501022616384	-0.3151711047376196	0.008479504251952496	-0.4363322868791819	0.8645089633431853	0.8645089633431776	-0.174530004550185	0.1745313487949528	-0.04119389316221996	-0.07181465450989089	0.09352871407120321	0.02354150752309476	0.05921457547299826	-0.2548973695168432	-0.001213266741862279	-0.05628444611126888	-2.512973113966775e-05	-0.1600105125265643	-0.1600105125265373	-1.107490169534115e-05	-9.548147306705707e-06	-0.007245262666885886	-0.0007774379818870165	-0.4255114677240057	0.01440199049422559	-0.01982410356105862	-0.1972306344123403	0.200920130680828	0.05196299248943367	0.3437589504743166	19.29909936604278	-26.4740899861107	4.420726776683251	-0.8092895026912681	-705.9718083265473	-55.50818989410131	-17.68524422222123	2.106452513144623	0.472780140762928	1.23811890092792	-5.441933364700214	-0.0163563436514735	-1.180238804644621	0.04487174760771373	-3.346009622504602	-3.346009622502623	0.0114990181800234	-0.004785651843603231	-0.1905839042427112	-0.01505050380491645	-6.180147394793664e-09	-2.458568013460025e-08	3.540438214739349e-08	-1.62116240189513e-10	-1.364701159595324e-08	2.41393822580552e-08	-9.855933090811988e-09
1.06	-0.6572255710607949	-0.1535263492713242	0.6688479097104734	1.729679703549233	-0.3151842630289858	0.007857777069725645	-0.4363299777969173	0.862741661680325	0.8627416616803167	-0.1745300438248157	0.1745312090354123	-0.04127582855642455	-0.07182337586211635	0.11462598502503	0.02830299454482137	0.07157971519348448	-0.3093422723286119	-0.001412765223531219	-0.06805318241881959	0.0005605384863290378	-0.1934325214279906	-0.1934325214279525	3.709756293253671e-06	-1.788986780536754e-05	-0.009132283656999233	-0.0009597461457368985	-0.4254123374999559	0.0145555327124748	-0.01980227146945605	-0.196912579650649	0.2007295019701165	0.05207062957799023	0.343884755759804	19.24276240381727	-26.51767169152988	4.435326970677995	-0.9191853831292528	-706.0088860627828	-55.57165522587641	-17.79591140601424	2.12050470046179	0.4802448175090726	1.2359347553255	-5.456852477799345	-0.02882251158753238	-1.172467064700586	0.06387928560755217	-3.33977699729234	-3.339776997292887	-0.01870156023995543	0.006933326745211604	-0.187798836759098	-0.02671680539763193	-7.746129919378809e-09	-3.008889465298978e-08	4.186676344582617e-08	5.461543576127957e-10	-1.676890087209878e-08	2.857240843664445e-08	-1.179538864791421e-08
1.07	-0.6559744366436778	-0.1532192201907695	0.6696252727464396	1.726314906607908	-0.3151992276171983	0.007118649609254234	-0.4363186833407033	0.8606407272369967	0.8606407272370009	-0.174529940915447	0.1745309941133754	-0.04137625313523426	-0.07183367089108623	0.1355593330882291	0.03313881465854176	0.08388005637174487	-0.3635672499408729	-0.001572194231772274	-0.07976158849742353	0.001866108157484365	-0.2267306473150673	-0.2267306473150446	1.753064065216286e-05	-2.384968013412864e-05	-0.01093366483933826	-0.001088175810404391	-0.4256554325272534	0.01481856025889553	-0.01975764262804146	-0.1963372090679459	0.2004155355889408	0.05226100184532607	0.3444198154454121	19.1450506948999	-26.59024412305397	4.454895309364624	-1.123604061924535	-706.1864808951466	-55.66836615552366	-17.92741416574117	2.073513373781529	0.4876498430188929	1.225154424148313	-5.397842633851483	-0.008310569394920626	-1.168432253279134	0.1890591185813298	-3.321269624347447	-3.321269624349738	0.01151682764691838	-0.00418679481526305	-0.1734624440413508	-0.004243468224853726	-9.323327951149528e-09	-3.560121197186433e-08	4.825714962601383e-08	1.300417939588738e-09	-1.993026169713174e-08	3.297480108455104e-08	-1.37221289322031e-08
1.08	-0.654515216043014	-0.1528632530621346	0.6705252533192028	1.722409355444296	-0.315215547990283	0.006262757113230275	-0.4362893005256827	0.858207523686813	0.8582075236868105	-0.1745296812142665	0.174530754361299	-0.04149412246288081	-0.07184491770094738	0.1562432217327168	0.03807060416087128	0.09610322255287745	-0.4174931167896153	-0.001683922198116176	-0.09140618952958154	0.004178210257098545	-0.2598863427994271	-0.2598863427994286	3.506811993531682e-05	-2.285587619430249e-05	-0.0126212334244785	-0.001150102324014236	-0.4258985275544817	0.01508158780532446	-0.01971301378662916	-0.1957618384852513	0.2001015692077555	0.05245137411266815	0.3449548751311015	19.0408877952643	-26.66289708093435	4.475858853119599	-1.324327461664898	-706.4625105867557	-55.76020747820479	-18.07960900337379	2.070612816719477	0.4994386952309339	1.220499755899958	-5.397030325095656	-0.01928230320813808	-1.159706055411476	0.2651857712992639	-3.311290916748951	-3.311290916751266	-0.01795824125511869	0.008324049999025029	-0.1650363173192929	-0.01341617518612779	-1.034003428462959e-08	-4.045463963962348e-08	5.366761111648576e-08	1.107334895556832e-09	-2.220721609764399e-08	3.671787567443406e-08	-1.541669433048798e-08
